<svg version="1.2" xmlns="http://www.w3.org/2000/svg" viewBox="0 0 101 85" width="101" height="85">
	<title>&lt;Group&gt;</title>
	<style>
		.s0 { fill: #1a1a1a } 
	</style>
	<g id="&lt;Group&gt;">
		<path id="&lt;Path&gt;" class="s0" d="m0 84.5h5v-84h-5z"/>
		<path id="&lt;Path&gt;" class="s0" d="m8.4 84.5h5v-84h-5z"/>
		<path id="&lt;Path&gt;" class="s0" d="m16.8 84.5h1.7v-84h-1.7z"/>
		<path id="&lt;Path&gt;" class="s0" d="m21.8 84.5h5.1v-84h-5.1z"/>
		<path id="&lt;Path&gt;" class="s0" d="m30.2 84.5h1.7v-84h-1.7z"/>
		<path id="&lt;Path&gt;" class="s0" d="m35.3 84.5h5v-84h-5z"/>
		<path id="&lt;Path&gt;" class="s0" d="m43.7 84.5h1.7v-84h-1.7z"/>
		<path id="&lt;Path&gt;" class="s0" d="m48.7 84.5h1.7v-84h-1.7z"/>
		<path id="&lt;Path&gt;" class="s0" d="m53.8 84.5h5v-84h-5z"/>
		<path id="&lt;Path&gt;" class="s0" d="m62.2 84.5h5v-84h-5z"/>
		<path id="&lt;Path&gt;" class="s0" d="m70.6 84.5h1.6v-84h-1.6z"/>
		<path id="&lt;Path&gt;" class="s0" d="m75.6 84.5h1.7v-84h-1.7z"/>
		<path id="&lt;Path&gt;" class="s0" d="m80.6 84.5h1.7v-84h-1.7z"/>
		<path id="&lt;Path&gt;" class="s0" d="m85.7 84.5h1.7v-84h-1.7z"/>
		<path id="&lt;Path&gt;" class="s0" d="m90.7 84.5h1.7v-84h-1.7z"/>
		<path id="&lt;Path&gt;" class="s0" d="m95.8 84.5h5v-84h-5z"/>
	</g>
</svg>