<svg width="126" height="126" viewBox="0 0 126 126" fill="none" xmlns="http://www.w3.org/2000/svg">
<path fill-rule="evenodd" clip-rule="evenodd" d="M1 42C0.447715 42 0 41.5523 0 41V1C0 0.447715 0.447716 0 1 0H41C41.5523 0 42 0.447716 42 1V41C42 41.5523 41.5523 42 41 42H1ZM6 35C6 35.5523 6.44772 36 7 36H35C35.5523 36 36 35.5523 36 35V7C36 6.44772 35.5523 6 35 6H7C6.44772 6 6 6.44772 6 7V35ZM30 13C30 12.4477 29.5523 12 29 12H13C12.4477 12 12 12.4477 12 13V29C12 29.5523 12.4477 30 13 30H29C29.5523 30 30 29.5523 30 29V13ZM1 54C0.447715 54 0 53.5523 0 53V49C0 48.4477 0.447715 48 1 48H11C11.5523 48 12 48.4477 12 49V54H1ZM24 60V55C24 54.4477 24.4477 54 25 54H29C29.5523 54 30 53.5523 30 53V49C30 48.4477 29.5523 48 29 48H19C18.4477 48 18 48.4477 18 49V53C18 53.5523 17.5523 54 17 54H12V66H7C6.44772 66 6 66.4477 6 67V71C6 71.5523 5.55228 72 5 72H1C0.447715 72 0 72.4477 0 73V77C0 77.5523 0.447715 78 1 78H11C11.5523 78 12 77.5523 12 77V66H17C17.5523 66 18 65.5523 18 65V61C18 60.4477 18.4477 60 19 60H24ZM24 72V60H29C29.5523 60 30 60.4477 30 61V65C30 65.5523 30.4477 66 31 66H33.2508C33.7635 66 34.1912 66.3881 34.2595 66.8962C34.4327 68.1864 34.6908 69.4496 35.0279 70.6802C35.2075 71.3359 34.7255 72 34.0457 72H24ZM24 72V77C24 77.5523 23.5523 78 23 78H19C18.4477 78 18 77.5523 18 77V73C18 72.4477 18.4477 72 19 72H24ZM36.7002 78C36.3135 78 36 77.6832 36 77.2965V77.2965C36 76.5275 37.1907 76.26 37.5608 76.9342V76.9342C37.8218 77.4097 37.4825 78 36.94 78H36.7002ZM53 96C53.5523 96 54 95.5523 54 95V91.9543C54 91.2745 54.6641 90.7925 55.3198 90.9721C56.5504 91.3092 57.8136 91.5673 59.1038 91.7405C59.6119 91.8088 60 92.2365 60 92.7492V95C60 95.5523 60.4477 96 61 96H62C62.5523 96 63 96.4477 63 97V107C63 107.552 62.5523 108 62 108H49C48.4477 108 48 107.552 48 107V97C48 96.4477 48.4477 96 49 96H53ZM68.5 126C67.9477 126 67.5 125.552 67.5 125V92.5092C67.5 92.0164 67.8595 91.5989 68.344 91.5086C69.6365 91.2679 70.8989 90.9414 72.125 90.5353C72.7926 90.3141 73.5 90.7989 73.5 91.5022V125C73.5 125.552 73.0523 126 72.5 126H68.5ZM67.5 33.4908C67.5 33.9836 67.8595 34.4011 68.344 34.4914C69.6365 34.7321 70.8989 35.0586 72.125 35.4647C72.7926 35.6859 73.5 35.2011 73.5 34.4978V1C73.5 0.447715 73.0523 0 72.5 0H68.5C67.9477 0 67.5 0.447716 67.5 1V33.4908ZM79 126C78.4477 126 78 125.552 78 125V88.3879C78 88.0381 78.1835 87.7148 78.4792 87.5278C79.795 86.6956 81.0393 85.7605 82.2006 84.7338C82.8769 84.1359 84 84.5969 84 85.4995V125C84 125.552 83.5523 126 83 126H79ZM78 37.6121C78 37.962 78.1835 38.2852 78.4792 38.4722C79.795 39.3044 81.0393 40.2395 82.2006 41.2662C82.8769 41.8641 84 41.4031 84 40.5005V1C84 0.447715 83.5523 0 83 0H79C78.4477 0 78 0.447715 78 0.999999V37.6121ZM89.25 126C88.8358 126 88.5 125.664 88.5 125.25V76.9861C88.5 76.879 88.5266 76.7742 88.5772 76.6798V76.6798C88.9123 76.0546 90 76.2849 90 76.9943V125.25C90 125.664 89.6642 126 89.25 126V126ZM88.5 49.0139C88.5 49.121 88.5266 49.2258 88.5772 49.3202V49.3202C88.9123 49.9454 90 49.7151 90 49.0057V0.75C90 0.335786 89.6642 0 89.25 0V0C88.8358 0 88.5 0.335786 88.5 0.75V49.0139ZM48 36.94C48 37.4825 48.5903 37.8218 49.0658 37.5608V37.5608C49.74 37.1907 49.4725 36 48.7035 36V36C48.3168 36 48 36.3135 48 36.7002V36.94ZM36 48.7035C36 48.3168 36.3135 48 36.7002 48H36.94C37.4825 48 37.8218 48.5903 37.5608 49.0658V49.0658C37.1907 49.74 36 49.4725 36 48.7035V48.7035ZM60 18H62C62.5523 18 63 17.5523 63 17V7C63 6.44772 62.5523 6 62 6H54V1C54 0.447715 53.5523 0 53 0H49C48.4477 0 48 0.447715 48 1V5C48 5.55228 48.4477 6 49 6H54V11C54 11.5523 54.4477 12 55 12H59C59.5523 12 60 12.4477 60 13V18ZM60 18V29C60 29.5523 59.5523 30 59 30H55C54.4477 30 54 29.5523 54 29V19C54 18.4477 54.4477 18 55 18H60ZM13 96C12.4477 96 12 96.4477 12 97V113C12 113.552 12.4477 114 13 114H29C29.5523 114 30 113.552 30 113V97C30 96.4477 29.5523 96 29 96H13ZM1 84C0.447715 84 0 84.4477 0 85V125C0 125.552 0.447716 126 1 126H41C41.5523 126 42 125.552 42 125V85C42 84.4477 41.5523 84 41 84H1ZM36 119C36 119.552 35.5523 120 35 120H7C6.44772 120 6 119.552 6 119V91C6 90.4477 6.44772 90 7 90H35C35.5523 90 36 90.4477 36 91V119ZM54 115C54 114.448 53.5523 114 53 114H49C48.4477 114 48 114.448 48 115V125C48 125.552 48.4477 126 49 126H59C59.5523 126 60 125.552 60 125V121C60 120.448 59.5523 120 59 120H55C54.4477 120 54 119.552 54 119V115ZM96 125.25C96 125.664 95.6642 126 95.25 126V126C94.8358 126 94.5 125.664 94.5 125.25V0.75C94.5 0.335786 94.8358 0 95.25 0V0C95.6642 0 96 0.335784 96 0.749997V125.25ZM102.75 125.25C102.75 125.664 102.414 126 102 126V126C101.586 126 101.25 125.664 101.25 125.25V0.75C101.25 0.335786 101.586 0 102 0V0C102.414 0 102.75 0.335784 102.75 0.749997V125.25ZM109.5 125C109.5 125.552 109.052 126 108.5 126H107.5C106.948 126 106.5 125.552 106.5 125V1C106.5 0.447715 106.948 0 107.5 0H108.5C109.052 0 109.5 0.447711 109.5 0.999996V125ZM115.5 125C115.5 125.552 115.052 126 114.5 126H114.25C113.698 126 113.25 125.552 113.25 125V1C113.25 0.447715 113.698 0 114.25 0H114.5C115.052 0 115.5 0.447711 115.5 0.999996V125ZM126 125C126 125.552 125.552 126 125 126H120.25C119.698 126 119.25 125.552 119.25 125V1C119.25 0.447715 119.698 0 120.25 0H125C125.552 0 126 0.447711 126 0.999996V125ZM61 42C60.4477 42 60 42.4477 60 43V59C60 59.5523 59.5523 60 59 60H43C42.4477 60 42 60.4477 42 61V65C42 65.5523 42.4477 66 43 66H59C59.5523 66 60 66.4477 60 67V83C60 83.5523 60.4477 84 61 84H65C65.5523 84 66 83.5523 66 83V67C66 66.4477 66.4477 66 67 66H83C83.5523 66 84 65.5523 84 65V61C84 60.4477 83.5523 60 83 60H67C66.4477 60 66 59.5523 66 59V43C66 42.4477 65.5523 42 65 42H61Z" fill="url(#paint0_linear_190_7120)"/>
<defs>
<linearGradient id="paint0_linear_190_7120" x1="0" y1="63" x2="126" y2="63" gradientUnits="userSpaceOnUse">
<stop stop-color="#9F4ED6"/>
<stop offset="1" stop-color="#087FE0"/>
</linearGradient>
</defs>
</svg>
